<?xml version="1.0" encoding="utf-8"?>
<!-- Generator: Adobe Illustrator 17.0.2, SVG Export Plug-In . SVG Version: 6.00 Build 0)  -->
<!DOCTYPE svg PUBLIC "-//W3C//DTD SVG 1.1//EN" "http://www.w3.org/Graphics/SVG/1.1/DTD/svg11.dtd">
<svg version="1.1" id="Calque_1" xmlns="http://www.w3.org/2000/svg" xmlns:xlink="http://www.w3.org/1999/xlink" x="0px" y="0px"
	 width="32.875px" height="42.499px" viewBox="0 0 32.875 42.499" enable-background="new 0 0 32.875 42.499" xml:space="preserve">
<path fill="#703031" d="M7.175,0C3.035,4.461,0.5,10.433,0.5,16.999c0,13.807,11.193,25,25,25c2.567,0,5.044-0.388,7.375-1.107V0
	H7.175z"/>
<path fill="#C67969" d="M25.5,41.499c-13.51,0-24.5-10.991-24.5-24.5C1,10.401,3.626,4.409,7.881,0H6.513
	C2.467,4.515,0,10.473,0,16.999c0,14.061,11.439,25.5,25.5,25.5c2.564,0,5.039-0.384,7.375-1.092v-1.045
	C30.546,41.099,28.069,41.499,25.5,41.499z"/>
</svg>
